<svg width="86" height="45" viewBox="0 0 117 45" fill="none" xmlns="http://www.w3.org/2000/svg">
<g clip-path="url(#clip0_23_402)">
<path d="M60.4048 14.905L65.9712 14.5324C66.0982 15.4749 66.331 16.1763 66.712 16.6805C67.3258 17.4695 68.1724 17.8641 69.2941 17.8641C70.1196 17.8641 70.7757 17.6668 71.2201 17.2504C71.6434 16.9216 71.8974 16.3955 71.8974 15.8475C71.8974 15.3215 71.6646 14.8173 71.2625 14.4885C70.8392 14.094 69.8444 13.6995 68.2782 13.3488C65.7173 12.7569 63.8759 11.9678 62.7965 10.9596C61.7171 10.017 61.1033 8.63613 61.1456 7.16755C61.1456 6.15927 61.4419 5.15099 61.9922 4.31806C62.6272 3.37554 63.4949 2.63029 64.532 2.21383C65.6538 1.70969 67.22 1.44666 69.1883 1.44666C71.6011 1.44666 73.4425 1.90696 74.7124 2.84948C75.9823 3.77008 76.7442 5.26059 76.977 7.29907L71.4741 7.62785C71.326 6.75109 71.0297 6.11543 70.5429 5.69897C70.0561 5.28251 69.4211 5.08523 68.5957 5.08523C67.9184 5.08523 67.4105 5.23867 67.0718 5.52362C66.7543 5.78665 66.5427 6.18119 66.5639 6.61957C66.5639 6.94836 66.7332 7.25523 66.9872 7.4525C67.2623 7.71553 67.9184 7.95664 68.9555 8.17583C71.5165 8.74573 73.3366 9.31563 74.4584 9.90744C75.5801 10.4993 76.3844 11.2226 76.8712 12.0774C77.3792 12.9542 77.6331 13.9625 77.612 14.9927C77.612 16.2202 77.2733 17.4476 76.5961 18.4778C75.8976 19.5519 74.924 20.3848 73.7811 20.8889C72.5747 21.4369 71.0508 21.7219 69.2306 21.7219C66.0136 21.7219 63.7912 21.0862 62.5425 19.793C61.2938 18.4998 60.553 16.8777 60.4048 14.905ZM1.33339 21.3931V1.79736H11.0904C12.8895 1.79736 14.2864 1.9508 15.2388 2.27958C16.17 2.58645 16.9955 3.22211 17.5458 4.07695C18.1596 5.01948 18.4559 6.11543 18.4347 7.25523C18.4982 9.18411 17.5458 11.0253 15.9161 11.9898C15.2811 12.3624 14.5827 12.6254 13.8631 12.7569C14.3922 12.9104 14.9213 13.1734 15.3869 13.4803C15.7467 13.7871 16.0431 14.1378 16.3182 14.5105C16.6357 14.8831 16.9108 15.2996 17.1436 15.7379L19.9797 21.415H13.3339L10.2015 15.3872C9.79939 14.6201 9.46074 14.1159 9.14327 13.8748C8.71997 13.5679 8.21201 13.4145 7.70405 13.4145H7.19609V21.3712H1.33339V21.3931ZM7.19609 9.73209H9.67239C10.2015 9.68825 10.7095 9.60058 11.2174 9.46906C11.5984 9.4033 11.937 9.18411 12.1699 8.85533C12.7413 8.06624 12.6567 6.94836 11.9582 6.26887C11.5772 5.94008 10.8365 5.76473 9.77822 5.76473H7.19609V9.73209ZM0 38.1831L5.56639 37.8105C5.69338 38.753 5.92619 39.4544 6.30716 39.9586C6.89978 40.7477 7.76755 41.1641 8.88929 41.1641C9.71472 41.1641 10.3708 40.9669 10.8153 40.5504C11.2386 40.1997 11.4926 39.6956 11.4926 39.1476C11.4926 38.6215 11.2598 38.1174 10.8576 37.7886C10.4343 37.394 9.43958 36.9995 7.85221 36.6488C5.29124 36.057 3.44989 35.2679 2.37048 34.2596C1.29106 33.3171 0.677279 31.9362 0.719609 30.4676C0.719609 29.4593 1.01592 28.451 1.56621 27.6181C2.20116 26.6756 3.06892 25.9303 4.10601 25.5139C5.22775 25.0097 6.79396 24.7467 8.7623 24.7467C11.1751 24.7467 13.0165 25.207 14.2864 26.1495C15.5563 27.0921 16.297 28.5606 16.5298 30.5991L11.027 30.9279C10.8788 30.0511 10.5825 29.4155 10.0957 28.999C9.63006 28.5826 8.97395 28.3853 8.14852 28.4072C7.47124 28.4072 6.96328 28.5606 6.62464 28.8675C6.286 29.1305 6.09551 29.5251 6.11668 29.9635C6.11668 30.2922 6.286 30.5991 6.53998 30.7964C6.81512 31.0594 7.47124 31.3005 8.50832 31.5197C11.0693 32.0896 12.8895 32.6595 14.0112 33.2513C15.133 33.8431 15.9372 34.5665 16.424 35.4213C16.932 36.2981 17.186 37.3064 17.186 38.3147C17.186 39.5421 16.8262 40.7477 16.17 41.7779C15.4716 42.8519 14.498 43.6848 13.3551 44.189C12.1487 44.737 10.6248 45.0219 8.80463 45.0219C5.58755 45.0219 3.36523 44.3863 2.1165 43.093C0.867764 41.7779 0.16932 40.1559 0 38.1831Z" fill="black"/>
<path d="M28.1495 36.6488L33.2714 38.2489C32.9963 39.586 32.4248 40.8573 31.6417 41.9752C30.9221 42.9615 29.9697 43.7287 28.8903 44.2328C27.7897 44.737 26.3928 45 24.6996 45C22.6466 45 20.9534 44.6931 19.6624 44.0794C18.3501 43.4657 17.2284 42.3697 16.276 40.8134C15.3235 39.2572 14.8579 37.2625 14.8579 34.8295C14.8579 31.5855 15.6833 29.0867 17.3554 27.3551C19.0274 25.6235 21.3767 24.7467 24.4245 24.7467C26.8161 24.7467 28.6786 25.2508 30.0544 26.2372C31.4089 27.2455 32.4248 28.7798 33.1021 30.8402L27.9379 32.0239C27.8109 31.5636 27.6204 31.1033 27.3664 30.7087C27.0489 30.2484 26.6468 29.8977 26.16 29.6347C25.6732 29.3716 25.1229 29.262 24.5726 29.262C23.2392 29.262 22.2233 29.81 21.5249 30.9279C20.9958 31.7389 20.7206 33.0321 20.7206 34.7857C20.7206 36.9557 21.0381 38.4462 21.673 39.2572C22.308 40.0682 23.1969 40.4627 24.361 40.4627C25.4827 40.4627 26.3293 40.1339 26.9008 39.4983C27.4722 38.8188 27.8955 37.8763 28.1495 36.6488ZM40.1077 25.0755H45.9493V31.9362H52.3411V25.0755H58.225V44.6712H52.3411V36.7365H45.9493V44.6712H40.1077V25.0755Z" fill="black"/>
<path d="M57.4207 34.8734C57.4207 31.6732 58.2884 29.1744 60.0028 27.3989C61.7171 25.6235 64.13 24.7248 67.1989 24.7248C70.3525 24.7248 72.7653 25.6016 74.4796 27.3551C76.194 29.1086 77.0406 31.5636 77.0406 34.7199C77.0406 37.0214 76.6596 38.8846 75.9188 40.3531C75.1992 41.7998 74.0775 42.9834 72.7018 43.7725C71.2837 44.5835 69.527 45 67.4317 45C65.294 45 63.5373 44.6493 62.1404 43.9479C60.7012 43.2026 59.516 42.0409 58.7329 40.6162C57.8651 39.0818 57.4207 37.1749 57.4207 34.8734ZM63.2622 34.8953C63.2622 36.868 63.622 38.2927 64.3204 39.1695C65.0189 40.0244 65.9925 40.4627 67.22 40.4627C68.4688 40.4627 69.4424 40.0463 70.1408 39.1914C70.8393 38.3366 71.1779 36.8242 71.1779 34.6322C71.1779 32.791 70.8181 31.4321 70.0985 30.5991C69.3789 29.7443 68.4053 29.3278 67.1777 29.3278C66.0983 29.284 65.0612 29.7662 64.3416 30.621C63.622 31.4759 63.2622 32.9006 63.2622 34.8953ZM83.0303 34.8734C83.0303 31.6732 83.898 29.1744 85.6124 27.3989C87.3268 25.6235 89.7396 24.7248 92.8085 24.7248C95.9621 24.7248 98.3961 25.6016 100.089 27.3551C101.782 29.1086 102.65 31.5636 102.65 34.7199C102.65 37.0214 102.269 38.8846 101.528 40.3531C100.809 41.7998 99.6871 42.9834 98.3114 43.7725C96.8933 44.5835 95.1366 45 93.0413 45C90.9037 45 89.147 44.6493 87.7501 43.9479C86.3109 43.2026 85.1256 42.0409 84.3425 40.6162C83.4747 39.0818 83.0303 37.1749 83.0303 34.8734ZM88.8718 34.8953C88.8718 36.868 89.2316 38.2927 89.9301 39.1695C90.6285 40.0244 91.6021 40.4627 92.8297 40.4627C94.0784 40.4627 95.052 40.0463 95.7504 39.1914C96.4489 38.3366 96.7875 36.8242 96.7875 34.6322C96.7875 32.791 96.4277 31.4321 95.7081 30.5991C94.9885 29.7443 94.0149 29.3278 92.7873 29.3278C91.7079 29.284 90.6497 29.7662 89.9512 30.621C89.2316 31.4759 88.8718 32.9006 88.8718 34.8953Z" fill="black"/>
<path d="M102.036 25.0755H107.878V39.849H117V44.6712H102.015V25.0755H102.036Z" fill="black"/>
<path d="M95.5978 23.9446C101.479 19.3547 103.292 11.5742 99.6484 6.56624C96.0044 1.55829 88.2827 1.21938 82.4015 5.80924C76.5203 10.3991 74.7068 18.1797 78.3508 23.1876C81.9949 28.1956 89.7166 28.5345 95.5978 23.9446Z" fill="white"/>
<mask id="mask0_23_402" style="mask-type:luminance" maskUnits="userSpaceOnUse" x="76" y="2" width="26" height="26">
<path d="M95.5978 23.9447C101.479 19.3548 103.292 11.5742 99.6484 6.5663C96.0044 1.55835 88.2827 1.21944 82.4015 5.8093C76.5203 10.3992 74.7068 18.1797 78.3508 23.1877C81.9949 28.1956 89.7166 28.5345 95.5978 23.9447Z" fill="white"/>
</mask>
<g mask="url(#mask0_23_402)">
<path d="M63.3521 12.3932L93.7434 -11.3252L114.773 17.5758L84.382 41.2943L63.3521 12.3932Z" fill="white"/>
<mask id="mask1_23_402" style="mask-type:luminance" maskUnits="userSpaceOnUse" x="63" y="-12" width="52" height="54">
<path d="M63.3521 12.3932L93.7434 -11.3252L114.773 17.5758L84.382 41.2943L63.3521 12.3932Z" fill="white"/>
</mask>
<g mask="url(#mask1_23_402)">
<path d="M95.5978 23.9447C101.479 19.3548 103.292 11.5742 99.6484 6.5663C96.0044 1.55835 88.2827 1.21944 82.4015 5.8093C76.5203 10.3992 74.7068 18.1797 78.3508 23.1877C81.9949 28.1956 89.7166 28.5345 95.5978 23.9447Z" fill="white"/>
<mask id="mask2_23_402" style="mask-type:luminance" maskUnits="userSpaceOnUse" x="76" y="2" width="26" height="26">
<path d="M95.5978 23.9447C101.479 19.3548 103.292 11.5742 99.6484 6.5663C96.0044 1.55835 88.2827 1.21944 82.4015 5.8093C76.5203 10.3992 74.7068 18.1797 78.3508 23.1877C81.9949 28.1956 89.7166 28.5345 95.5978 23.9447Z" fill="white"/>
</mask>
<g mask="url(#mask2_23_402)">
<path d="M71.8149 14.3231L93.096 -2.28475L106.305 15.8684L85.0236 32.4762L71.8149 14.3231Z" fill="white"/>
<mask id="mask3_23_402" style="mask-type:luminance" maskUnits="userSpaceOnUse" x="71" y="-3" width="36" height="36">
<path d="M71.8149 14.3231L93.096 -2.28475L106.305 15.8684L85.0236 32.4762L71.8149 14.3231Z" fill="white"/>
</mask>
<g mask="url(#mask3_23_402)">
<path d="M95.5978 23.9447C101.479 19.3548 103.292 11.5742 99.6484 6.5663C96.0044 1.55835 88.2827 1.21944 82.4015 5.8093C76.5203 10.3992 74.7068 18.1797 78.3508 23.1877C81.9949 28.1956 89.7166 28.5345 95.5978 23.9447Z" fill="white" stroke="black" stroke-width="4" stroke-miterlimit="10"/>
</g>
<mask id="mask4_23_402" style="mask-type:luminance" maskUnits="userSpaceOnUse" x="74" y="-2" width="30" height="34">
<path d="M74.8477 25.3173L82.2912 -1.30213L103.29 4.87086L95.8468 31.4903L74.8477 25.3173Z" fill="white"/>
</mask>
<g mask="url(#mask4_23_402)">
<path d="M71.8149 14.4067L93.1745 -2.28474L106.305 15.7847L84.9451 32.4762L71.8149 14.4067Z" stroke="black" stroke-width="4" stroke-miterlimit="10"/>
</g>
<path d="M95.5978 23.9447C101.479 19.3548 103.292 11.5742 99.6484 6.5663C96.0044 1.55835 88.2827 1.21944 82.4015 5.8093C76.5203 10.3992 74.7068 18.1797 78.3508 23.1877C81.9949 28.1956 89.7166 28.5345 95.5978 23.9447Z" stroke="black" stroke-width="4" stroke-miterlimit="10"/>
<path d="M71.8149 14.3231L93.096 -2.28475L106.305 15.8684L85.0236 32.4762L71.8149 14.3231Z" fill="white"/>
<mask id="mask5_23_402" style="mask-type:luminance" maskUnits="userSpaceOnUse" x="71" y="-3" width="36" height="36">
<path d="M71.8149 14.3231L93.096 -2.28475L106.305 15.8684L85.0236 32.4762L71.8149 14.3231Z" fill="white"/>
</mask>
<g mask="url(#mask5_23_402)">
<path d="M95.5978 23.9447C101.479 19.3548 103.292 11.5742 99.6484 6.5663C96.0044 1.55835 88.2827 1.21944 82.4015 5.8093C76.5203 10.3992 74.7068 18.1797 78.3508 23.1877C81.9949 28.1956 89.7166 28.5345 95.5978 23.9447Z" fill="white" stroke="black" stroke-width="4" stroke-miterlimit="10"/>
</g>
<mask id="mask6_23_402" style="mask-type:luminance" maskUnits="userSpaceOnUse" x="74" y="-2" width="30" height="34">
<path d="M74.8477 25.3173L82.2912 -1.30213L103.29 4.87086L95.8468 31.4903L74.8477 25.3173Z" fill="white"/>
</mask>
<g mask="url(#mask6_23_402)">
<path d="M71.8149 14.4067L93.1745 -2.28474L106.305 15.7847L84.9451 32.4762L71.8149 14.4067Z" stroke="black" stroke-width="4" stroke-miterlimit="10"/>
</g>
<path d="M63.3521 12.3932L93.7434 -11.3252L114.773 17.5758L84.382 41.2943L63.3521 12.3932Z" stroke="black" stroke-width="4" stroke-miterlimit="10"/>
</g>
<path d="M95.5978 23.9447C101.479 19.3548 103.292 11.5742 99.6484 6.5663C96.0044 1.55835 88.2827 1.21944 82.4015 5.8093C76.5203 10.3992 74.7068 18.1797 78.3508 23.1877C81.9949 28.1956 89.7166 28.5345 95.5978 23.9447Z" stroke="black" stroke-width="4" stroke-miterlimit="10"/>
<path d="M83.0515 13.4364L85.168 11.9021L87.7713 15.738C88.2158 16.3517 88.5544 17.0093 88.8084 17.7326C88.9565 18.2806 88.9142 18.8724 88.7025 19.3985C88.4274 20.056 87.9829 20.604 87.3903 20.9986C86.6919 21.5027 86.0993 21.7876 85.5913 21.8753C85.1045 21.963 84.5965 21.8753 84.1309 21.6561C83.6229 21.3931 83.1785 21.0205 82.8398 20.5383L84.66 18.7847C84.8082 19.0258 84.9987 19.245 85.2103 19.4204C85.3585 19.53 85.5278 19.5957 85.7183 19.5957C85.8664 19.5957 86.0146 19.53 86.1204 19.4423C86.3321 19.3108 86.4802 19.0477 86.4591 18.7847C86.3956 18.4121 86.2474 18.0395 86.0146 17.7545L83.0515 13.4364ZM89.401 15.8695L91.327 14.2913C91.5387 14.5543 91.8138 14.7516 92.1101 14.8612C92.5334 14.9927 92.9779 14.905 93.3377 14.6201C93.5917 14.4447 93.8033 14.2036 93.888 13.8968C94.015 13.5022 93.8033 13.0638 93.4223 12.9323C93.3588 12.9104 93.2953 12.8885 93.2318 12.8885C92.9779 12.8666 92.5334 12.9761 91.8773 13.2611C90.7979 13.7214 89.9513 13.8968 89.3163 13.831C88.7025 13.7652 88.1311 13.4364 87.7924 12.8885C87.5385 12.5158 87.4115 12.0775 87.3903 11.6391C87.3903 11.1349 87.5173 10.6308 87.7924 10.2143C88.1946 9.62252 88.6814 9.11838 89.274 8.72383C90.1629 8.08818 90.946 7.78131 91.6233 7.78131C92.3006 7.78131 92.9355 8.1101 93.5282 8.78959L91.6233 10.3459C91.2423 9.84171 90.5227 9.73211 90.0359 10.1267L89.9724 10.1924C89.7608 10.3239 89.6126 10.5212 89.528 10.7623C89.4645 10.9377 89.5068 11.1349 89.6126 11.2884C89.6973 11.398 89.8243 11.4856 89.9724 11.4856C90.1418 11.5076 90.4381 11.4199 90.8614 11.2226C91.9196 10.7623 92.7239 10.4993 93.2742 10.4116C93.7398 10.3239 94.2266 10.3678 94.6711 10.565C95.0732 10.7404 95.4118 11.0473 95.6447 11.4199C95.941 11.8583 96.1103 12.3843 96.1315 12.9323C96.1526 13.5022 96.0045 14.0502 95.7082 14.5324C95.3272 15.1242 94.8404 15.6284 94.2689 16.0229C93.1049 16.8558 92.1524 17.2065 91.3905 17.075C90.5651 16.9435 89.8878 16.5051 89.401 15.8695Z" fill="black"/>
</g>
</g>
</g>
<defs>
<clipPath id="clip0_23_402">
<rect width="117" height="45" fill="white"/>
</clipPath>
</defs>
</svg>
